<?xml version="1.0" encoding="UTF-8" standalone="no"?>
<!-- Created with Inkscape (http://www.inkscape.org/) -->

<svg
   width="210mm"
   height="297mm"
   viewBox="0 0 210 297"
   version="1.1"
   id="svg5"
   inkscape:version="1.1 (c68e22c387, 2021-05-23)"
   sodipodi:docname="hammer2.svg"
   xmlns:inkscape="http://www.inkscape.org/namespaces/inkscape"
   xmlns:sodipodi="http://sodipodi.sourceforge.net/DTD/sodipodi-0.dtd"
   xmlns="http://www.w3.org/2000/svg"
   xmlns:svg="http://www.w3.org/2000/svg">
  <sodipodi:namedview
     id="namedview7"
     pagecolor="#ffffff"
     bordercolor="#666666"
     borderopacity="1.0"
     inkscape:pageshadow="2"
     inkscape:pageopacity="0.0"
     inkscape:pagecheckerboard="0"
     inkscape:document-units="mm"
     showgrid="false"
     inkscape:zoom="1.0482005"
     inkscape:rotation="1"
     inkscape:cx="343.39032"
     inkscape:cy="609.00626"
     inkscape:window-width="1920"
     inkscape:window-height="1017"
     inkscape:window-x="-8"
     inkscape:window-y="-8"
     inkscape:window-maximized="1"
     inkscape:current-layer="layer1" />
  <defs
     id="defs2" />
  <g
     inkscape:label="Layer 1"
     inkscape:groupmode="layer"
     id="layer1">
    <path
       style="fill:#000000;stroke-width:0.253255"
       d="m 124.01769,246.65957 c 24.94881,-2.36433 43.67127,-7.17727 60.37487,-15.52046 8.60607,-4.29859 18.39,-10.9695 19.30686,-13.16385 0.6859,-1.64158 0.87616,-1.06758 -4.3049,-12.98728 -1.64198,-3.77758 -3.20104,-7.00349 -3.57754,-7.40239 -1.15934,-1.22833 -2.68594,-1.42667 -4.55991,-0.59245 -0.41787,0.18603 -1.44356,0.64318 -2.2793,1.01591 -13.74461,6.12986 -23.0238,8.953 -33.34192,10.14411 -4.24848,0.49044 -9.97366,0.3812 -12.7506,-0.24328 -5.60463,-1.26039 -10.82953,-5.79237 -14.48211,-12.56151 -2.48017,-4.59635 -5.7891,-15.15468 -7.42104,-23.6794 -3.0223,-15.78754 -5.9648,-40.7721 -8.64976,-73.444129 -0.30936,-3.76452 -0.31953,-3.80627 -1.12599,-4.621915 l -0.81381,-0.823081 h -4.73588 -4.73587 l -0.86107,0.861072 c -0.545472,0.545464 -0.861076,1.106734 -0.861076,1.531354 0,1.03447 -1.691028,20.120149 -2.548016,28.758009 -1.353108,13.63836 -2.676418,24.8235 -4.044956,34.18951 -2.495194,17.07664 -5.545144,28.87474 -9.523929,36.84128 -3.077815,6.16257 -7.794093,10.65044 -13.023376,12.39266 -3.05689,1.01844 -5.19422,1.24829 -9.987706,1.07409 -10.49266,-0.38133 -20.855804,-3.08601 -34.316135,-8.95619 -7.331703,-3.19742 -7.338222,-3.19963 -8.518624,-2.88177 -1.928951,0.5194 -1.804172,0.28935 -8.2373092,15.18729 -2.4386051,5.64736 -2.3768761,6.0517 1.3819092,9.05323 4.222993,3.3722 10.513729,7.29491 16.532661,10.30925 18.076545,9.05294 40.157882,14.32759 66.840492,15.96647 4.150246,0.2549 26.312835,-0.0721 30.264035,-0.44653 z m -26.591827,-2.85003 c -0.626804,-0.0414 -3.248002,-0.19726 -5.824882,-0.34615 -2.576871,-0.1489 -4.987612,-0.32961 -5.357192,-0.40159 -0.642167,-0.12506 -0.660564,-0.17232 -0.414844,-1.06583 0.685699,-2.49331 2.572467,-4.71003 4.962505,-5.83035 1.27636,-0.59827 1.749229,-0.67624 4.10186,-0.67624 2.191019,0 2.867654,0.0964 3.843324,0.54726 2.637516,1.21894 4.677936,3.93001 4.951306,6.57868 l 0.14017,1.35812 -2.6313,-0.0442 c -1.447219,-0.0243 -3.144143,-0.0782 -3.770947,-0.11967 z m 10.195367,-1.1539 c 0.27829,-2.69645 2.14271,-5.19972 4.87333,-6.54323 1.10142,-0.54191 1.61251,-0.62303 3.92547,-0.62303 2.35263,0 2.8255,0.078 4.10186,0.67624 2.39298,1.12169 4.27671,3.33678 4.96457,5.83783 0.25593,0.93058 0.24912,0.9441 -0.54147,1.07471 -1.13273,0.18713 -7.86152,0.60141 -13.05984,0.80407 l -4.40825,0.17186 z m -29.442791,-0.46987 c -4.890314,-0.662 -10.958896,-1.7255 -11.19534,-1.96194 -0.309841,-0.30985 0.957972,-2.64236 2.018046,-3.71278 1.332586,-1.34557 2.61467,-2.10651 4.302228,-2.55343 4.5962,-1.21723 9.244508,2.23712 9.841113,7.31335 l 0.1688,1.4362 -0.857946,-0.0293 c -0.471873,-0.0161 -2.396479,-0.23756 -4.276901,-0.49212 z m 49.986821,-0.93482 c 0.61253,-5.39961 5.69788,-8.73597 10.74298,-7.04817 1.75912,0.58849 4.10138,2.73992 5.01421,4.60566 0.37213,0.76061 0.6329,1.42317 0.57947,1.47234 -0.29044,0.26729 -14.37829,2.42639 -15.83189,2.42639 -0.66593,0 -0.66898,-0.009 -0.50477,-1.45622 z m -64.802279,-1.61024 c -0.417869,-0.10947 -2.070366,-0.50334 -3.672208,-0.87527 -2.755204,-0.63974 -9.40364,-2.39684 -9.578058,-2.53137 -0.202914,-0.15651 1.099769,-2.29254 1.981481,-3.24908 1.338846,-1.45248 2.984565,-2.22652 5.047743,-2.37414 2.870181,-0.20536 5.166615,1.19497 6.631915,4.04404 0.586229,1.13983 1.001169,4.8309 0.56942,5.06518 -0.121285,0.0659 -0.562423,0.0301 -0.980293,-0.0794 z m 41.704399,-0.87939 c -0.86546,-1.78138 -2.67498,-3.53939 -4.67082,-4.53787 -0.974863,-0.48771 -1.956596,-0.88848 -2.18164,-0.89062 -0.225044,-0.002 -0.540725,-0.0876 -0.701503,-0.18993 -0.160779,-0.10235 3.578853,-0.18607 8.310293,-0.18607 h 8.60264 l -1.59691,0.47027 c -2.77249,0.81648 -5.13295,2.69608 -6.47949,5.15954 l -0.72396,1.32447 z m 41.79547,-1.05595 c 0.17353,-2.90601 1.38008,-4.96664 3.71008,-6.33636 1.01639,-0.5975 1.45165,-0.69148 3.20232,-0.69148 2.47392,0 3.94292,0.64793 5.56869,2.45617 0.96789,1.07653 2.07777,2.92437 1.86067,3.09784 -0.41173,0.32898 -12.98664,3.43656 -13.90614,3.43656 -0.53081,0 -0.54817,-0.0782 -0.43562,-1.96273 z m -62.582681,-0.95741 c -0.893362,-1.68402 -3.492965,-4.006 -5.261674,-4.69979 -1.169222,-0.45862 -1.995753,-0.58127 -4.005749,-0.59437 -2.330051,-0.0152 -2.664195,0.0465 -4.178723,0.77121 -0.905383,0.43324 -2.192445,1.27353 -2.86013,1.86731 -0.667676,0.59378 -1.251216,1.03706 -1.296749,0.98508 -0.04556,-0.052 -0.31121,-0.60737 -0.590393,-1.23418 -1.237297,-2.77786 -3.532238,-4.74212 -6.386779,-5.46649 -2.638925,-0.66966 -5.631569,-0.0509 -8.008024,1.65574 -1.104105,0.79292 -1.370098,0.77479 -1.374003,-0.0936 -0.0038,-0.86717 -1.406002,-3.04591 -2.684191,-4.17102 -2.774022,-2.44179 -7.344646,-2.66057 -10.200317,-0.48826 -0.775589,0.59 -1.042175,0.5804 -1.042175,-0.0375 0,-1.0751 -1.10332,-3.39212 -2.080655,-4.36945 -2.113784,-2.11379 -5.013399,-2.60417 -8.078301,-1.3662 -0.876074,0.35386 -1.604245,0.61886 -1.618152,0.58889 -0.01388,-0.03 -0.1612,-0.7352 -0.32733,-1.5672 -1.195899,-5.98929 -8.165977,-7.75567 -12.329682,-3.12463 -0.637305,0.70883 -1.195948,1.24446 -1.241433,1.19027 -0.04547,-0.0542 0.678817,-1.83439 1.609557,-3.95604 l 1.692259,-3.85753 0.993445,0.73058 c 1.778433,1.30789 6.928038,4.31699 10.841218,6.33493 13.472497,6.94748 30.733807,12.23551 48.400791,14.82765 5.371444,0.78811 12.494913,1.57085 16.3983,1.80186 1.636665,0.0969 2.97575,0.27336 2.97575,0.39221 0,0.11884 -0.321596,0.21608 -0.714655,0.21608 -1.905873,0 -5.007761,1.65095 -6.824912,3.63248 -0.594854,0.64866 -1.107896,1.17938 -1.140086,1.17938 -0.03216,0 -0.332441,-0.51631 -0.667207,-1.14735 z m 41.763571,0.91914 c 0,-0.12553 -0.54134,-0.76716 -1.20296,-1.42587 -1.39712,-1.39093 -4.19085,-2.82989 -5.94638,-3.06276 -2.09109,-0.2774 -1.56174,-0.52135 1.52214,-0.70147 17.59448,-1.02762 37.4948,-5.24986 52.83932,-11.21089 8.12141,-3.15501 18.73563,-8.61933 23.13742,-11.91144 l 0.83087,-0.6214 0.84919,1.85492 c 1.64793,3.59963 2.62119,5.90814 2.5319,6.00553 -0.0497,0.0542 -0.60883,-0.47822 -1.2426,-1.18312 -1.60229,-1.78213 -3.30349,-2.5876 -5.46518,-2.5876 -3.71646,0 -6.48576,2.4305 -6.97547,6.12205 -0.0892,0.6723 -0.20899,1.22237 -0.26624,1.22237 -0.0572,0 -0.54438,-0.22462 -1.08251,-0.49915 -3.05125,-1.55664 -7.10289,-0.83247 -8.95923,1.60131 -0.7409,0.97136 -1.69193,3.2042 -1.69193,3.97233 0,0.6278 -0.12536,0.62269 -1.06047,-0.0432 -0.97116,-0.69153 -3.51581,-1.48575 -4.76029,-1.48575 -1.48537,0 -4.15014,0.92866 -5.2765,1.83884 -1.12457,0.90873 -2.83179,3.5501 -2.83179,4.38127 0,0.86386 -0.25726,0.89176 -1.3618,0.1477 -3.28978,-2.21611 -6.77526,-2.56602 -10.00177,-1.00409 -1.57998,0.76486 -3.37347,2.64415 -4.22997,4.43234 -0.38825,0.8106 -0.73745,1.51635 -0.776,1.56834 -0.0386,0.052 -0.60586,-0.3771 -1.26072,-0.95353 -0.65486,-0.57643 -1.93992,-1.41672 -2.8557,-1.86732 -1.55948,-0.76732 -1.83391,-0.819 -4.32867,-0.81514 -2.47318,0.004 -2.78129,0.0616 -4.30977,0.80798 -1.87289,0.91459 -3.97489,2.87638 -4.85054,4.52702 -0.5521,1.04069 -0.97435,1.42669 -0.97435,0.89069 z m -82.434697,-3.53915 c -4.684405,-1.61466 -7.724295,-2.8108 -7.724295,-3.03937 0,-0.44166 1.520577,-2.51452 2.472097,-3.36995 3.048439,-2.74062 7.86101,-1.55537 9.443517,2.32576 0.622478,1.52663 0.383555,5.32663 -0.333991,5.31202 -0.171461,-0.004 -1.907261,-0.5563 -3.857328,-1.22846 z m 119.741107,0.53836 c -0.30914,-1.16322 -0.2204,-3.68204 0.16283,-4.62192 1.29225,-3.16928 4.9755,-4.702 7.99016,-3.32499 1.63378,0.74627 4.35093,4.06011 3.75707,4.58211 -0.37704,0.33141 -10.85859,4.06125 -11.41288,4.06125 -0.17165,0 -0.39539,-0.31341 -0.49718,-0.69645 z M 28.350397,227.89349 c -3.232486,-1.59063 -4.875171,-2.5325 -4.875171,-2.79528 0,-0.21797 0.548066,-0.94438 1.217934,-1.61424 1.280361,-1.28037 3.447834,-2.30353 4.879785,-2.30353 0.867574,0 2.434144,0.73193 3.068864,1.43383 0.845043,0.93447 1.458896,2.70949 1.464591,4.23504 0.0057,1.4367 -0.421975,3.4511 -0.730984,3.44574 -0.08241,-0.002 -2.343681,-1.08213 -5.025019,-2.40156 z m 149.144333,1.42506 c -1.27629,-4.25988 1.25188,-8.47557 4.8288,-8.05194 0.67509,0.0799 1.79928,0.45661 2.49819,0.83701 1.38496,0.75379 3.0164,2.38832 3.0164,3.02212 0,0.26683 -1.62756,1.18593 -4.93189,2.78508 -2.71254,1.31275 -4.97381,2.38682 -5.02503,2.38682 -0.0512,0 -0.22514,-0.44058 -0.38647,-0.97909 z m -77.15643,0.56003 c -3.683441,-0.0991 -12.036971,-0.58904 -12.876165,-0.75521 -0.673841,-0.13343 -0.709314,-0.20169 -0.554556,-1.06698 0.326812,-1.82716 1.602206,-4.09184 3.166316,-5.62231 1.240332,-1.21368 1.820387,-1.57713 3.19416,-2.00145 3.283456,-1.01415 6.00949,-0.43 8.019045,1.71838 1.51552,1.62021 2.64561,4.82711 2.60308,7.38686 -0.007,0.42874 -0.0669,0.43447 -3.55188,0.34071 z m 7.09361,-0.0428 c -0.16818,-0.16819 0.14689,-2.40302 0.54186,-3.8435 1.12871,-4.11647 4.14678,-6.36486 8.05162,-5.99827 2.10171,0.19731 3.79775,1.01092 5.35629,2.56945 1.44283,1.44283 2.23424,2.80406 2.89787,4.98434 l 0.43493,1.42888 -0.91821,0.14337 c -1.95361,0.30505 -16.15396,0.92613 -16.36436,0.71573 z m -25.581263,-1.22767 c -4.275168,-0.52952 -12.825563,-1.82554 -12.980014,-1.96743 -0.11738,-0.10783 0.88043,-2.81077 1.449142,-3.92555 0.918756,-1.80089 2.662204,-3.4764 4.121856,-3.96122 1.857382,-0.61692 4.449865,-0.36547 5.970604,0.5791 2.168708,1.34704 3.844339,4.81318 3.844339,7.95225 v 1.49285 l -0.823085,-0.0379 c -0.452691,-0.0209 -1.164972,-0.0803 -1.582842,-0.13205 z m 45.266563,-1.79273 c 0.22502,-3.51866 1.87284,-6.57398 4.13653,-7.66981 1.77267,-0.85814 4.21301,-0.96031 5.87366,-0.24593 2.18491,0.93993 4.01069,3.33597 4.94713,6.49232 l 0.38541,1.29908 -4.09269,0.65686 c -4.09412,0.65708 -9.98212,1.43021 -10.89226,1.43021 -0.44478,0 -0.4733,-0.15641 -0.35778,-1.96273 z m -63.121088,-1.10374 c -6.446451,-1.40102 -10.889988,-2.61622 -10.889988,-2.97814 0,-0.2066 0.408345,-1.20206 0.907441,-2.21214 1.243845,-2.51735 3.30507,-4.48878 5.094501,-4.87254 1.415698,-0.30361 3.562955,0.0844 4.741941,0.85692 0.791689,0.51874 1.796065,1.9937 2.320967,3.40843 0.47733,1.28647 0.644493,5.65038 0.231065,6.03172 -0.155983,0.14387 -1.080051,0.0539 -2.405927,-0.23425 z m 80.894408,0.24705 c -0.32225,-0.5214 -0.39493,-2.97398 -0.13034,-4.39836 0.63466,-3.4166 2.29106,-5.39683 4.98151,-5.95536 2.15111,-0.44658 3.70061,0.10927 5.46619,1.96086 1.27785,1.3401 2.99932,4.31185 2.99932,5.17768 0,0.52976 -13.03179,3.67615 -13.31668,3.21518 z m -39.93201,-2.7074 c -0.99277,-2.16286 -2.62379,-3.86724 -4.54412,-4.7485 -1.437383,-0.65964 -1.859363,-0.73228 -4.254818,-0.73248 -2.094621,-1.7e-4 -2.963929,0.11423 -4.094596,0.53883 -1.988957,0.74691 -3.616882,1.92789 -4.844388,3.51435 l -1.042137,1.34686 -0.864875,-1.76528 c -1.553983,-3.17181 -3.596897,-4.69969 -7.058744,-5.27918 -3.208193,-0.53703 -5.723851,0.28548 -8.080291,2.64192 l -1.330786,1.33079 -0.411868,-1.25923 c -0.766841,-2.34449 -1.911014,-3.73929 -3.929261,-4.78995 -0.983853,-0.51217 -1.503185,-0.59328 -3.798834,-0.59328 -2.403984,0 -2.780713,0.0654 -3.92546,0.68133 -0.696459,0.37473 -1.709842,1.09603 -2.251973,1.60289 -0.990353,0.92595 -1.406021,0.88635 -1.416359,-0.13492 -0.0067,-0.69994 -1.755164,-2.99664 -2.850272,-3.7448 -0.593494,-0.40547 -1.523439,-0.88209 -2.066556,-1.05918 -2.303929,-0.75121 -5.887348,-0.18006 -7.527104,1.1997 -0.634482,0.53388 -0.815582,0.58699 -1.001286,0.29361 -0.124692,-0.19699 -0.229523,-0.5291 -0.23296,-0.73804 -0.01072,-0.65189 -1.452387,-2.93583 -2.13578,-3.38361 -0.775838,-0.50835 -0.908456,-1.07706 -0.157428,-0.67512 1.701906,0.91084 12.022599,3.25968 17.233781,3.92218 1.601843,0.20364 4.963817,0.82368 7.471043,1.37787 28.106472,6.21258 59.499482,6.22683 87.246562,0.0396 2.43759,-0.54355 6.25541,-1.22623 8.48407,-1.51706 4.67428,-0.60996 9.39613,-1.61215 13.80127,-2.92923 1.69844,-0.50781 3.13786,-0.87353 3.19869,-0.8127 0.0608,0.0609 -0.17658,0.29877 -0.52759,0.52875 -0.6721,0.44039 -2.15428,2.80186 -2.16493,3.4493 -0.016,0.96997 -0.42493,1.09988 -1.31803,0.41868 -1.32544,-1.01097 -2.9022,-1.48674 -4.88524,-1.47406 -2.10938,0.0135 -3.1585,0.2995 -4.49453,1.22536 -1.1635,0.80631 -2.87432,3.09359 -3.10729,4.1543 -0.20423,0.92987 -0.32982,0.92537 -1.24533,-0.0446 -1.64716,-1.74518 -3.6293,-2.5416 -6.3074,-2.5343 -3.83973,0.0104 -6.45774,1.91584 -7.65288,5.56973 l -0.43597,1.3329 -1.11024,-1.26917 c -1.97643,-2.25937 -5.12965,-3.32932 -8.31303,-2.82076 -3.36771,0.53798 -5.51814,2.16601 -7.05337,5.33987 l -0.84505,1.74703 -0.8225,-1.14529 c -1.73882,-2.42128 -4.76657,-4.08617 -7.9104,-4.34973 -4.61912,-0.38725 -8.10201,1.53372 -9.99934,5.51509 l -0.73144,1.53485 z m -87.308175,-1.41576 c -1.741132,-1.16456 -3.564573,-2.47158 -4.052087,-2.90447 l -0.886394,-0.78709 1.308887,-1.2323 c 2.139292,-2.01411 4.495254,-2.24655 6.413159,-0.63274 1.052676,0.88577 1.577041,2.18865 1.615941,4.01512 0.03455,1.62263 -0.502112,3.67654 -0.957779,3.66554 -0.15182,-0.004 -1.700595,-0.95949 -3.441727,-2.12406 z m 171.980595,1.18101 c -0.8032,-3.01801 -0.43149,-5.25209 1.09715,-6.59426 2.02793,-1.78054 4.2985,-1.62326 6.55707,0.45419 l 1.31633,1.21076 -0.49325,0.54551 c -0.61965,0.68532 -7.53026,5.33351 -7.92949,5.33351 -0.16228,0 -0.4088,-0.42736 -0.54781,-0.94971 z M 45.03147,220.53347 c -2.978525,-1.02782 -5.475519,-1.9288 -5.548888,-2.00217 -0.253137,-0.25313 0.452223,-2.08391 1.201271,-3.11794 1.069809,-1.47682 2.714944,-2.36839 4.658052,-2.52436 1.848538,-0.14838 3.199195,0.39094 4.322617,1.72605 1.329273,1.57976 1.488626,2.14913 1.358391,4.85372 -0.06614,1.37329 -0.222776,2.59512 -0.3481,2.71518 -0.129307,0.12387 -2.570218,-0.59001 -5.643343,-1.65048 z m 115.36434,0.71029 c -0.0863,-0.52234 -0.15823,-1.75365 -0.15977,-2.73624 -0.002,-1.53431 0.0991,-1.94546 0.71866,-2.91244 0.88842,-1.3865 1.43573,-1.88131 2.63534,-2.38253 2.88282,-1.20452 6.37993,0.37673 7.82007,3.53592 0.65154,1.42929 0.59401,1.77333 -0.35017,2.09379 -0.45269,0.15365 -2.85109,0.97052 -5.32977,1.81528 -2.47867,0.84475 -4.65759,1.53593 -4.84203,1.53593 -0.19077,0 -0.40303,-0.40946 -0.49233,-0.94971 z M 33.8587,216.21419 c -1.741132,-0.77602 -3.820993,-1.7042 -4.62191,-2.06264 -0.800926,-0.35844 -1.456225,-0.78689 -1.456225,-0.95212 0,-0.54252 1.412922,-2.26234 2.425836,-2.95278 3.604602,-2.45702 7.43399,-0.45923 7.486118,3.9055 0.01311,1.09801 -0.4107,3.49638 -0.614571,3.47784 -0.02948,-0.003 -1.478116,-0.63979 -3.219248,-1.4158 z m 140.22172,0.97748 c -0.2557,-0.43445 -0.48654,-2.02462 -0.46066,-3.17329 0.0392,-1.73784 0.80183,-3.30698 1.97639,-4.06625 1.81507,-1.17331 3.39962,-1.10103 5.39471,0.24609 0.87235,0.58901 2.54192,2.50091 2.54192,2.91086 0,0.26535 -3.10529,1.8364 -6.38179,3.22873 -2.54159,1.08002 -2.88178,1.17462 -3.07057,0.85386 z m -80.134026,-2.81915 -0.82028,-0.15661 3.011969,-3.41895 c 1.656574,-1.88042 2.942913,-3.53291 2.858537,-3.6722 -0.312794,-0.51635 -3.940043,-6.11629 -4.650026,-7.17896 l -0.735474,-1.10081 1.845829,-2.31814 c 2.049385,-2.57378 3.944647,-5.01234 4.457412,-5.73516 0.296569,-0.41805 0.07562,-0.97362 -1.889539,-4.7514 l -2.225382,-4.27799 2.732395,-3.84123 2.732395,-3.84123 -1.792558,-3.40383 c -0.985897,-1.87211 -1.792557,-3.52921 -1.792557,-3.68245 0,-0.15323 0.82655,-1.38627 1.83676,-2.74008 3.003335,-4.02482 2.874515,-3.16986 1.109085,-7.36123 l -1.530439,-3.63348 1.430349,-2.69791 1.43036,-2.69792 1.0625,-0.0795 1.0625,-0.0795 -0.16613,3.62515 c -0.0914,1.99384 -0.33603,8.52566 -0.54367,14.51515 -0.20763,5.9895 -0.66116,19.0385 -1.00784,28.99778 -0.34669,9.95927 -0.63058,18.47816 -0.63087,18.93085 l -5.1e-4,0.82309 -3.482262,-0.0333 c -1.915254,-0.0184 -3.851394,-0.10382 -4.302554,-0.18995 z m 15.886206,-0.71551 c -0.002,-0.52835 -0.28529,-8.99516 -0.63058,-18.81515 -0.34529,-9.81999 -0.74449,-21.21649 -0.88709,-25.32557 -0.14261,-4.10906 -0.37164,-10.37714 -0.50896,-13.92905 -0.33872,-8.76158 -0.3971,-7.89805 0.52755,-7.80366 0.70663,0.0722 0.9051,0.32159 2.17885,2.73854 l 1.4014,2.65919 -0.38262,1.01302 c -0.21045,0.55716 -0.89604,2.22493 -1.52354,3.70616 l -1.14089,2.69314 2.25712,3.10029 c 1.24142,1.70516 2.25712,3.19305 2.25712,3.30643 0,0.11337 -0.79971,1.72121 -1.77714,3.57297 -0.97743,1.85177 -1.73269,3.48264 -1.67835,3.62415 0.0544,0.14152 1.25292,1.87282 2.66353,3.84734 1.41062,1.9745 2.56475,3.66929 2.56475,3.76617 0,0.0969 -0.97301,2.00636 -2.16223,4.24329 -1.18923,2.23691 -2.10672,4.21179 -2.03887,4.3886 0.0679,0.17682 1.49672,2.0827 3.17526,4.23527 1.67853,2.15258 3.05188,4.03202 3.05188,4.17654 0,0.24161 -1.55967,2.77106 -4.23383,6.86635 l -1.06814,1.63579 0.56163,0.69165 c 0.30889,0.38041 1.66705,1.94001 3.01811,3.46577 2.88197,3.25463 3.06147,3.01054 -2.25576,3.0674 l -3.36641,0.036 -0.003,-0.96063 z m -26.462419,-0.0838 c -4.578233,-0.49291 -12.66376,-1.65255 -13.929065,-1.99775 -0.826502,-0.22549 -0.848737,-0.21209 1.485343,-0.89477 3.339605,-0.9768 6.8614,-3.27114 9.786879,-6.37586 3.765141,-3.99583 6.185837,-8.46108 8.699715,-16.04759 2.760574,-8.33097 4.356386,-15.35148 6.102074,-26.84509 0.497163,-3.27333 0.970836,-6.38656 1.052599,-6.91829 0.08174,-0.53172 0.212869,-0.90256 0.291358,-0.82407 0.147952,0.14795 1.139138,2.40999 2.250408,5.13575 l 0.640932,1.57211 -2.193331,2.94944 c -1.206323,1.62219 -2.249953,3.097 -2.319158,3.27736 -0.0692,0.18034 0.694248,1.88679 1.696575,3.79211 l 1.822426,3.4642 -1.429711,2.06981 c -0.786339,1.13841 -2.01102,2.88469 -2.721511,3.88065 l -1.29181,1.81082 2.119297,4.01405 c 1.165605,2.20773 2.152493,4.13761 2.193087,4.28863 0.06652,0.24761 -1.975011,3.017 -5.181413,7.02859 -0.649863,0.81305 -1.181561,1.61929 -1.181561,1.79164 0,0.17236 1.165719,2.10708 2.590501,4.29938 1.424782,2.19231 2.554932,4.0725 2.511456,4.17821 -0.04346,0.1057 -1.389653,1.69244 -2.991495,3.52611 l -2.912441,3.33393 -1.392907,-0.0229 c -0.766094,-0.0126 -3.330311,-0.23151 -5.698247,-0.48644 z m 36.596869,-0.18034 c -0.32802,-0.38306 -1.63068,-1.87234 -2.8948,-3.30951 -1.26411,-1.43718 -2.33499,-2.71515 -2.37974,-2.83992 -0.0447,-0.12478 1.08445,-2.02596 2.50931,-4.22485 1.42486,-2.1989 2.59154,-4.11195 2.59263,-4.25124 9.6e-4,-0.13929 -1.45056,-2.1167 -3.22588,-4.39424 -3.20173,-4.10745 -3.22531,-4.14743 -2.91204,-4.93848 0.17371,-0.43863 0.39425,-0.91147 0.49008,-1.05076 0.0958,-0.13929 0.94292,-1.71983 1.88239,-3.5123 l 1.70814,-3.25906 -0.48909,-0.66641 c -0.269,-0.36653 -0.92797,-1.29322 -1.4644,-2.05931 -0.53643,-0.76611 -1.52441,-2.16259 -2.19551,-3.10331 -0.67111,-0.94071 -1.2202,-1.80098 -1.2202,-1.91171 0,-0.11073 0.81,-1.73431 1.79999,-3.60797 1.64465,-3.11266 1.77032,-3.45516 1.45622,-3.96862 -0.18908,-0.30907 -1.227,-1.76887 -2.3065,-3.24398 -1.07951,-1.47511 -1.96273,-2.73411 -1.96273,-2.79777 0,-0.0636 0.6467,-1.66352 1.43713,-3.55523 l 1.43713,-3.4395 -1.11378,-2.19135 c -1.6986,-3.34199 -1.6646,-3.10774 -0.4234,-2.91768 0.58787,0.0901 1.10556,0.19402 1.15045,0.23112 0.0449,0.0371 0.52835,3.21759 1.0744,7.06774 1.88549,13.29445 3.36389,20.88242 5.44072,27.92473 3.25491,11.03708 5.79654,16.21276 10.30123,20.97705 3.02085,3.19494 7.03614,5.73728 10.27722,6.50718 0.72385,0.17194 1.31609,0.38744 1.31609,0.47889 0,0.47473 -16.96552,2.75294 -20.50079,2.75294 -0.98242,0 -1.291,-0.12045 -1.78427,-0.69645 z m -96.498955,-2.29002 c -2.908746,-1.652 -6.071003,-3.66059 -6.071003,-3.85616 0,-0.29541 1.909913,-1.94824 2.758105,-2.38685 0.851484,-0.44033 2.459978,-0.5161 3.396575,-0.16 1.590021,0.60452 2.709259,2.44331 2.709259,4.45101 0,1.17112 -0.565046,2.92138 -0.936779,2.90171 -0.111579,-0.006 -0.946849,-0.43327 -1.856157,-0.94971 z m 161.951175,0.0822 c -0.20182,-0.48305 -0.36696,-1.43382 -0.36696,-2.11284 0,-3.66217 3.62464,-5.79491 6.59838,-3.88249 1.14026,0.7333 2.44073,1.98096 2.24546,2.15428 -0.52814,0.46877 -7.72722,4.7193 -7.99304,4.7193 -0.0643,0 -0.28201,-0.39521 -0.48384,-0.87825 z M 28.682694,207.93681 c -0.39527,-1.39562 -1.052838,-2.85172 -1.560032,-3.45448 -0.334604,-0.39766 -0.608369,-0.77653 -0.608369,-0.84193 0,-0.0654 1.510039,0.48258 3.355638,1.21773 1.845599,0.73516 3.583563,1.42233 3.862143,1.52706 0.362505,0.13627 0.05245,0.24655 -1.09036,0.38786 -0.912754,0.11286 -2.084322,0.46989 -2.734673,0.83338 -0.775388,0.43337 -1.165375,0.5386 -1.224347,0.33038 z m 152.444156,-0.42118 c -0.69646,-0.35262 -1.89308,-0.70594 -2.65919,-0.78514 -1.05192,-0.10874 -1.26891,-0.1947 -0.88639,-0.35108 2.1457,-0.87728 6.90572,-2.67361 7.08465,-2.67361 0.12179,0 -0.0193,0.25642 -0.31351,0.56983 -0.61072,0.65054 -1.56555,2.63889 -1.57384,3.27737 -0.009,0.66148 -0.28378,0.65525 -1.65172,-0.0373 z M 15.624296,205.22725 c 0,-0.32855 2.017989,-4.8929 2.284489,-5.16712 0.128598,-0.13233 1.123364,0.17997 2.38908,0.75002 l 2.168735,0.97675 -1.491707,0.30428 c -1.921533,0.39196 -2.733342,0.82484 -4.175573,2.22653 -0.646264,0.62809 -1.175024,1.03739 -1.175024,0.90954 z m 179.252664,-0.61219 c -0.89391,-1.07845 -3.37233,-2.38719 -4.92334,-2.59978 l -1.22737,-0.16823 2.11579,-0.97004 c 1.16368,-0.53352 2.24595,-0.96793 2.40505,-0.96535 0.15911,0.003 0.82004,1.2562 1.46876,2.78581 0.6487,1.52961 1.10456,2.77289 1.01302,2.76283 -0.0915,-0.0101 -0.47491,-0.39041 -0.85191,-0.84524 z M 97.046185,150.83869 c 0.23856,-2.43996 0.281471,-2.52899 1.274666,-2.64493 0.482786,-0.0564 0.877793,-0.006 0.877793,0.11278 0,0.27731 -2.065862,4.24163 -2.210369,4.24163 -0.06011,0 -0.03398,-0.76926 0.05791,-1.70948 z m 0.759145,-6.17005 c 0.101203,-0.88966 0.199679,-1.6348 0.218842,-1.65587 0.170273,-0.18724 5.155108,-0.59355 7.289088,-0.59411 2.22345,-5.1e-4 7.82243,0.40995 7.97009,0.5844 0.0224,0.0264 0.12299,0.77196 0.22363,1.65678 0.17006,1.49513 0.14971,1.59826 -0.28808,1.46007 -0.25909,-0.0817 -2.07645,-0.2631 -4.03857,-0.4029 -3.3523,-0.23887 -9.226485,-0.0163 -10.943692,0.41475 l -0.615308,0.15443 z m 0.549138,-3.93907 c -0.129622,-0.12962 0.233544,-2.85052 0.4031,-3.02007 0.432241,-0.43225 6.645322,-0.69385 10.092652,-0.42495 1.95698,0.15265 3.62895,0.34835 3.71549,0.43489 0.16264,0.16264 0.51822,2.88507 0.39316,3.01013 -0.0388,0.0388 -0.72888,-0.0118 -1.53365,-0.11224 -0.80477,-0.10048 -3.40061,-0.18269 -5.76856,-0.18269 -2.36793,0 -4.96378,0.0822 -5.768545,0.18269 -0.804773,0.10047 -1.49491,0.15098 -1.533647,0.11224 z m 0.671385,-6.61569 c 0.07792,-0.75514 0.187532,-1.4188 0.243546,-1.47482 0.230816,-0.23081 4.020591,-0.58949 6.305621,-0.59677 2.11958,-0.007 6.25784,0.3888 6.49189,0.62054 0.0434,0.043 0.14261,0.69573 0.22053,1.45064 l 0.14165,1.37256 -1.74005,-0.19324 c -2.18214,-0.24234 -8.345,-0.23711 -10.31805,0.009 l -1.486839,0.18528 0.141702,-1.37297 z m 0.543998,-5.21975 c 0.09594,-0.84799 0.206896,-1.57427 0.246561,-1.61394 0.03963,-0.0396 1.386568,-0.20091 2.993118,-0.35831 2.1826,-0.21383 3.64176,-0.2128 5.77224,0.004 1.56819,0.15966 2.88185,0.3209 2.91926,0.35831 0.0374,0.0374 0.15063,0.79825 0.25161,1.69077 0.1732,1.53096 0.1564,1.61109 -0.29701,1.41661 -0.73987,-0.31736 -8.36875,-0.46012 -10.32249,-0.19317 l -1.737727,0.23744 0.174438,-1.54182 z m 0.555609,-5.47035 c 0.0861,-0.76611 0.20728,-1.44989 0.26926,-1.51954 0.062,-0.0697 2.42997,-0.12662 5.26218,-0.12662 2.83221,0 5.20008,0.0569 5.26194,0.12662 0.0618,0.0697 0.183,0.75409 0.26921,1.52096 l 0.15674,1.39434 -5.68794,-0.002 -5.687958,-0.002 0.156568,-1.3929 z m 0.44538,-3.83236 c -0.0629,-0.1018 -0.0414,-0.8055 0.0477,-1.56374 l 0.16203,-1.37863 1.29844,-0.15602 c 1.66631,-0.20021 5.7777,-0.17282 7.24994,0.0483 l 1.13965,0.17117 0.22043,1.46794 c 0.12124,0.80737 0.17822,1.50687 0.12663,1.55445 -0.0516,0.0476 -1.30374,-0.0222 -2.78256,-0.15512 -1.59909,-0.1437 -3.63284,-0.15279 -5.01827,-0.0224 -1.28123,0.12056 -2.38099,0.13591 -2.44391,0.0341 z m 0.53139,-6.55113 c 0.0952,-0.76609 0.21883,-1.46775 0.27475,-1.55923 0.31048,-0.50792 8.08101,-0.42211 8.59806,0.095 0.0535,0.0535 0.17036,0.71831 0.25961,1.47727 l 0.16226,1.37993 h -4.73388 -4.73389 z m 0.45806,-5.28171 c 0.0769,-0.74594 0.21343,-1.42973 0.30341,-1.51954 0.19871,-0.19833 7.36588,-0.22077 7.56274,-0.0236 0.0767,0.0768 0.21242,0.76057 0.30163,1.51953 l 0.16218,1.37993 h -4.23488 -4.2349 l 0.13982,-1.35624 z m 0.4283,-4.97513 c 0.006,-2.00158 0.0493,-2.02672 3.49897,-2.02138 3.61388,0.006 3.84123,0.12331 3.84148,1.98907 l 1.8e-4,1.29858 h -3.67213 -3.67211 z m 0.39021,-4.122349 c -0.12241,-0.12192 0.29274,-2.09412 0.48046,-2.2824 0.0986,-0.099 1.28318,-0.21825 2.63229,-0.2651 2.77686,-0.0965 3.21242,0.12376 3.37114,1.70442 l 0.0863,0.85947 -3.24983,0.0269 c -1.7874,0.0148 -3.28156,-0.005 -3.32036,-0.0433 z"
       id="path917"
       sodipodi:nodetypes="sssssscsssssscccsssssssssssssssssssssscsssssscssscsssssscsssssssssssssssssssscsscsscsssssssssssssssssssssssssssscsssssssssssssssscsssssssssssssssssssssssssssscssssssssssssccsssssssssssssscsssssscsssssssscssssssscssscsssssscssssssssssscssscssssscsssssssssssscssssssssscssscssscssscssscsssscsssssssssssscsssssssssssscssssssssccssscssscccssssccccccssscccccssssscsscssssssssssscssscccssssssssscssscsscsssssssccsssssscsssscssssssssscssssssssssssssscssssssssssssssssssscsssssscssssscscssscssscsscssssscsssssssssscscsscscccccsscssssccccsssscccccsscsscsssssscsssccccssssccccsssscccssssscsss" />
  </g>
</svg>
