<?xml version="1.0" encoding="UTF-8" standalone="no"?>
<!-- Created with Inkscape (http://www.inkscape.org/) -->

<svg
   version="1.1"
   id="svg824"
   width="795"
   height="778"
   viewBox="0 0 795 778"
   sodipodi:docname="ukonvasara_recreation.svg"
   inkscape:version="1.1 (c68e22c387, 2021-05-23)"
   xmlns:inkscape="http://www.inkscape.org/namespaces/inkscape"
   xmlns:sodipodi="http://sodipodi.sourceforge.net/DTD/sodipodi-0.dtd"
   xmlns="http://www.w3.org/2000/svg"
   xmlns:svg="http://www.w3.org/2000/svg">
  <defs
     id="defs828" />
  <sodipodi:namedview
     id="namedview826"
     pagecolor="#ffffff"
     bordercolor="#666666"
     borderopacity="1.0"
     inkscape:pageshadow="2"
     inkscape:pageopacity="0.0"
     inkscape:pagecheckerboard="0"
     showgrid="false"
     inkscape:zoom="1.0398458"
     inkscape:cx="210.60816"
     inkscape:cy="389.96168"
     inkscape:window-width="1920"
     inkscape:window-height="1017"
     inkscape:window-x="-8"
     inkscape:window-y="-8"
     inkscape:window-maximized="1"
     inkscape:current-layer="g830" />
  <g
     inkscape:groupmode="layer"
     inkscape:label="Image"
     id="g830">
    <path
       style="fill:#000000"
       d="M 0,389 C 0,130.33333 0.33504713,0 1,0 1.6649529,0 2,130.33333 2,389 2,647.66667 1.6649529,778 1,778 0.33504713,778 0,647.66667 0,389 Z M 357.5,768.99834 C 316.11005,766.78466 286.77013,763.42949 247.1144,756.37518 156.91041,740.32891 79.942958,708.996 24.096997,665.58636 6.7072783,652.06915 6.668587,653.2864 25.891991,609.11494 c 15.506216,-35.63013 16.541897,-37.51648 21.82589,-39.75296 5.453751,-2.30832 8.721564,-1.59193 24.008222,5.26329 86.132657,38.6257 160.202317,51.15691 195.773897,33.12131 18.91139,-9.5885 35.57904,-28.77496 46.25635,-53.24658 25.36143,-58.12658 39.11037,-145.16656 58.76157,-372 2.13193,-24.60888 0.87287,-23.5 26.68265,-23.5 20.47498,0 22.32395,0.37452 24.81342,5.02614 0.5662,1.05796 2.14551,14.87238 3.50957,30.69871 13.46819,156.26322 26.44326,256.25895 39.61135,305.27515 12.96803,48.27148 24.41342,72.9811 42.04436,90.7702 18.47974,18.64553 33.86376,24.55342 63.82073,24.50894 45.88656,-0.0681 100.00103,-14.83228 162,-44.19877 14.23801,-6.74399 19.87727,-3.64451 28.28909,15.54837 30.69581,70.03732 29.9272,64.69112 11.38119,79.16331 C 702.27864,722.28215 594.83196,757.46208 464,767.51097 c -23.6294,1.81491 -84.48485,2.66482 -106.5,1.48737 z M 391.5809,750.75 c -4.43991,-27.9667 -41.4531,-38.63026 -61.11704,-17.60791 -4.47152,4.78042 -9.43469,13.71687 -9.45409,17.02259 -0.014,2.39033 23.49806,4.43766 53.86804,4.69059 C 392.25562,755 392.25562,755 391.5809,750.75 Z m 58.9191,3.27024 c 31.14267,-2.14039 29.40214,-1.39269 25.04206,-10.75767 -14.71433,-31.60482 -62.75506,-26.32464 -68.12296,7.48743 -0.67472,4.25 -0.67472,4.25 14.20309,4.24122 8.1828,-0.005 21.17781,-0.44177 28.87781,-0.97098 z m -140.73023,-9.29965 c -2.41544,-30.09135 -41.25462,-39.07269 -58.23338,-13.46614 -6.07042,9.15511 -5.73974,9.82201 5.96361,12.02745 8.4476,1.59191 47.03271,7.31392 51.38691,7.62046 1.09492,0.0771 1.28079,-1.22438 0.88286,-6.18177 z M 503.5,749.02992 c 4.4,-0.54717 17.138,-2.44549 28.30668,-4.2185 23.14507,-3.67424 22.40198,-3.06556 15.99328,-13.10038 -11.64845,-18.23927 -36.22818,-20.90373 -50.4551,-5.46935 C 492.59862,731.39076 489,740.16263 489,746.58283 c 0,4.5078 0,4.5078 3.25,3.97487 1.7875,-0.29311 6.85,-0.98061 11.25,-1.52778 z M 236.60715,736.42909 c 1.67832,-6.68693 -2.69229,-19.37966 -8.70054,-25.26734 -9.64966,-9.45602 -22.56497,-10.38734 -34.55565,-2.49181 -5.47003,3.60187 -12.96864,13.27803 -12.08149,15.5899 0.59716,1.55618 9.52602,4.20917 34.73053,10.31934 21.11837,5.11958 19.81586,5.00266 20.60715,1.84991 z m 169.92747,-8.88559 c 3.18074,-4.17016 12.90293,-10.88899 18.21107,-12.58533 2.06487,-0.65987 4.06981,-1.48291 4.45543,-1.82897 0.38562,-0.34606 -12.88938,-0.49889 -29.5,-0.33963 -30.20112,0.28957 -30.20112,0.28957 -24.36609,2.67293 10.38421,4.24149 20.7487,13.92451 23.21205,21.68584 0.59025,1.85972 0.91003,1.64541 2.97843,-1.99607 1.27445,-2.24371 3.52855,-5.66766 5.00911,-7.60877 z m 168.58099,8.90028 c 6.26141,-1.40592 16.55939,-3.93947 22.88439,-5.6301 6.325,-1.69064 13.22642,-3.52995 15.33649,-4.08737 5.2106,-1.37649 5.49253,-2.97015 1.54802,-8.75053 -13.82466,-20.25901 -40.49178,-19.0039 -49.91516,2.34929 C 562.04056,726.96164 560.98652,739 563.33423,739 c 0.21834,0 5.51997,-1.1503 11.78138,-2.55622 z M 322.47293,726.1324 c 5.14702,-5.50259 13.66957,-10.42912 21.6394,-12.50883 6.6578,-1.73734 5.05121,-2.23206 -10.11233,-3.11388 -5.775,-0.33584 -16.125,-1.23085 -23,-1.98891 -23.62864,-2.60537 -23.87988,-2.62372 -20.22065,-1.4765 9.39909,2.94673 19.33943,10.88848 24.0377,19.2047 3.22008,5.69974 2.20087,5.71526 7.65588,-0.11658 z m 161.3908,0.71418 c 5.1189,-8.96134 14.03085,-16.33603 23.60413,-19.53258 4.61623,-1.54137 6.90777,-1.67771 -20.05659,1.19328 -7.6512,0.81465 -18.99018,1.7783 -25.19773,2.14144 -10.00126,0.58507 -17.0535,2.35128 -9.38835,2.35128 4.99266,0 18.34669,7.39318 23.26817,12.88194 5.40045,6.02292 4.91536,5.9627 7.77037,0.96464 z M 171.375,718.875 c 3.7125,-18.5625 -5.7997,-32.29592 -22.375,-32.30432 -7.48635,-0.004 -11.2955,1.65048 -16.65176,7.23166 -3.5505,3.6996 -8.77736,11.15303 -8.17043,11.65093 1.2401,1.01732 43.51902,16.17254 45.94719,16.47013 0.34375,0.0421 0.90625,-1.32965 1.25,-3.0484 z m 470.25231,-1.25752 C 677.86721,705.27958 676.3252,706.34012 670.15085,698 663.76868,689.37915 658.72669,686.51379 650,686.54828 c -13.70206,0.0542 -23,9.53355 -23,23.44884 0,5.1802 0.85394,12.00288 1.50231,12.00288 0.13877,0 6.04502,-1.97213 13.125,-4.38252 z m -391.58263,-0.65873 c 5.78322,-5.33904 14.94376,-9.74593 22.93333,-11.03261 C 280.05457,704.78649 281.91235,704 277.52776,704 264.32,704 191.55888,687.62152 166.56493,679.02234 c -7.83516,-2.69569 -8.07014,-2.54012 -1.57242,1.04102 8.78577,4.84218 17.00749,15.52075 17.00749,22.08976 0,1.5449 0.69867,1.30036 4.43645,-1.55275 14.4355,-11.01886 36.36169,-9.5719 48.84713,3.22354 4.45963,4.57036 9.71642,13.13204 9.71642,15.82503 0,1.90409 0.16143,1.818 5.04468,-2.69019 z m 305.83575,-2.36743 c 10.50403,-21.33672 36.82599,-28.04784 55.99462,-14.27655 4.92935,3.54138 4.92935,3.54138 5.53583,0.36331 3.94317,-20.66313 34.22713,-32.10714 51.03634,-19.28614 3.46947,2.6463 4.55278,2.15174 4.55278,-2.0785 0,-0.83764 1.15535,-3.83834 2.56745,-6.66821 7.27052,-14.57026 20.04293,-19.62174 35.9296,-14.21013 7.50248,2.55562 8.45006,2.28408 8.49741,-2.4351 0.0382,-3.80586 4.35541,-12.11999 8.13308,-15.66272 12.18146,-11.42387 28.83726,-10.648 41.10569,1.9148 4.73324,4.8468 4.73324,4.8468 1.18736,-3.45264 -4.81626,-11.27288 -8.73869,-20.22253 -9.05765,-20.66649 -0.14504,-0.20188 -5.57353,2.9855 -12.06332,7.08307 -37.88798,23.92194 -74.73924,40.41466 -125.54976,56.18961 -26.72941,8.29857 -77.58098,19.744 -98.74986,22.22614 l -6.5,0.76216 7,1.29983 c 10.59327,1.96706 21.97013,8.32695 27.11272,15.15654 0.062,0.0823 1.53247,-2.7342 3.26771,-6.25898 z m -271.15126,-9.19549 c -0.33229,-0.33229 -1.1948,-0.36781 -1.91667,-0.0789 -0.79773,0.31922 -0.56078,0.55618 0.60417,0.60416 1.05416,0.0434 1.64479,-0.19293 1.3125,-0.52522 z m 230,0 c -0.33229,-0.33229 -1.1948,-0.36781 -1.91667,-0.0789 -0.79773,0.31922 -0.56078,0.55618 0.60417,0.60416 1.05416,0.0434 1.64479,-0.19293 1.3125,-0.52522 z M 115.69887,697.25 c 5.55852,-26.40238 -17.336192,-40.60854 -35.584601,-22.08023 -6.951859,7.05849 -7.584313,6.37881 17.050927,18.32426 17.911984,8.6854 17.512894,8.60452 18.533674,3.75597 z m 589.59859,-5.53193 c 20.29798,-9.82126 19.87711,-9.4122 15.11136,-14.68732 -15.7942,-17.48228 -37.22783,-11.61926 -37.7508,10.32647 -0.37997,15.94518 -1.03969,15.8181 22.63944,4.36085 z M 391.69941,693.684 c -1.86984,-20.02376 -13.43511,-32.14295 -30.47988,-31.93975 -12.55172,0.14964 -22.09934,5.51391 -28.75635,16.15656 -3.2221,5.1512 -8.14223,17.75347 -7.27128,18.62443 0.33394,0.33393 16.25585,1.53353 37.3081,2.81089 2.75,0.16685 10.57757,0.38449 17.3946,0.48362 C 392.28921,700 392.28921,700 391.69941,693.684 Z m 68.09563,4.16885 c 16.47576,-1.34414 16.1204,-0.80709 9.60993,-14.52315 -7.43461,-15.66301 -21.56996,-23.82554 -36.93029,-21.32558 -14.21153,2.31299 -23.53205,14.09562 -25.18936,31.84341 l -0.60507,6.47952 19.40987,-0.65398 c 10.67544,-0.35969 25.84265,-1.17879 33.70492,-1.82022 z m -145.20765,-9.45042 c -1.656,-18.27462 -10.11718,-29.76984 -23.80942,-32.3471 -14.3942,-2.70939 -24.38018,3.31822 -31.80917,19.20026 -5.76675,12.32842 -5.90255,12.07818 7.69557,14.18107 11.3672,1.75789 44.34931,6.2767 47.22356,6.47 1.12631,0.0757 1.25816,-1.33878 0.69946,-7.50423 z M 504,693.43189 c 32.27028,-4.08423 39.5206,-5.71018 39.29829,-8.81302 -0.60218,-8.40456 -9.98661,-22.39652 -17.66637,-26.34011 C 505.31277,647.84478 484,665.22268 484,692.22439 c 0,3.95141 0,3.95141 3.75,3.37047 2.0625,-0.31951 9.375,-1.29284 16.25,-2.16297 z M 244.79099,674.25 c -0.71073,-16.39906 -5.46375,-25.10634 -15.67044,-28.70747 -9.86111,-3.4792 -18.94087,-0.96174 -26.17573,7.2575 -3.98101,4.52266 -11.65106,18.82707 -10.6382,19.83992 1.35239,1.3524 45.81533,12.16108 50.57183,12.29372 C 245.2569,685 245.2569,685 244.79099,674.25 Z m 329.66174,6.78851 c 15.83169,-3.56894 31.47387,-7.71049 32.39851,-8.57809 0.90119,-0.84559 -7.16587,-15.53628 -10.79606,-19.66039 -12.17496,-13.83149 -31.92288,-11.01607 -39.15125,5.58171 C 553.95398,665.15539 552.76671,685 555.31139,685 c 0.86256,0 9.47616,-1.78267 19.14134,-3.96149 z M 135,678.86928 c 3.8213,-2.00725 5.94702,-2.36417 14.09422,-2.36652 l 9.59422,-0.003 -11.59422,-4.10418 c -35.29129,-12.4926 -71.460276,-29.98567 -99.463244,-48.10526 -5.427964,-3.51221 -9.958981,-6.25191 -10.068927,-6.0882 -0.109947,0.1637 -1.456989,3.22264 -2.993428,6.79764 -1.536438,3.575 -4.310376,10.00975 -6.164306,14.29944 -3.370781,7.79944 -3.370781,7.79944 1.362452,2.95264 16.956086,-17.36293 44.901071,-10.31351 48.737064,12.29443 1.265889,7.46069 1.348734,7.59168 3.808012,6.02126 17.044076,-10.88385 38.671247,-1.35318 43.747777,19.2788 0.97608,3.96698 1.21667,4.21732 2.75493,2.86651 0.927,-0.81403 3.71045,-2.54374 6.18545,-3.8438 z m 274.73146,-16.55405 c 15.91364,-16.37392 48.24079,-13.1282 63.17236,6.34264 3.40383,4.43861 3.40383,4.43861 6.26028,-1.51291 5.45213,-11.3597 14.54002,-19.01242 25.03112,-21.07819 7.40483,-1.45806 1.62063,-1.14069 -15.85856,0.87014 -56.65092,6.5172 -139.70943,6.09608 -187.52821,-0.9508 -8.90506,-1.31231 -11.49992,-1.10939 -5.30845,0.41511 11.18263,2.75345 18.83395,9.28025 24.34847,20.76994 2.86903,5.97771 2.86903,5.97771 5.76028,2.07459 9.10422,-12.29048 21.39971,-17.77183 38.27831,-17.06452 15.95616,0.66866 26.08333,7.09444 32.54024,20.64708 l 2.92731,6.14422 3.0245,-6.10213 c 1.66347,-3.35617 4.97203,-8.10599 7.35235,-10.55517 z m 346.4822,-0.58731 c 10.88708,-7.86944 11.02668,-9.23165 1.58624,-15.47904 -13.72392,-9.08206 -28.48114,0.4289 -27.54266,17.75112 0.70922,13.09067 1.43798,13.77393 9.46936,8.87814 3.72537,-2.27093 11.14455,-7.28852 16.48706,-11.15022 z M 67.841712,672.13398 c 6.206902,-20.71679 -10.677027,-36.83611 -26.846459,-25.63069 -9.563836,6.62774 -9.421169,7.34001 3.246912,16.21017 22.066376,15.45084 21.822041,15.35331 23.599547,9.42052 z M 182.4827,668.25 c 1.60446,-4.03031 1.76976,-16.7304 0.26452,-20.32273 -8.93341,-21.31998 -37.04764,-18.274 -44.17465,4.78602 -0.83947,2.71617 0.0537,3.13094 24.42743,11.34337 20.13627,6.78467 18.58409,6.45059 19.4827,4.19334 z M 629.5,666.04844 c 14.56649,-4.72717 29.87177,-10.23014 30.84378,-11.08977 0.46408,-0.41043 -0.12147,-2.93153 -1.30122,-5.60245 -9.01252,-20.40405 -34.48252,-21.25461 -42.78978,-1.42895 -2.39701,5.72058 -0.72724,22.82233 2.12626,21.77704 C 618.99557,669.47847 624,667.83333 629.5,666.04844 Z M 269.71569,648.27262 c 2.93478,-1.34358 8.36184,-2.74706 12.06013,-3.11883 C 288.5,644.47784 288.5,644.47784 276,642.65298 c -13.69064,-1.99868 -48.1283,-8.68935 -60,-11.65701 -4.125,-1.03116 -12.225,-2.37843 -18,-2.99394 -5.775,-0.61551 -13.61959,-1.76067 -17.43243,-2.54481 -8.1396,-1.67396 -8.97677,-1.46385 -3.60702,0.90527 5.49165,2.42291 13.82748,11.81627 15.26906,17.20618 1.15781,4.32894 1.15781,4.32894 5.53896,0.29054 13.01764,-11.99925 34.82585,-12.81204 46.25152,-1.7238 3.80849,3.69601 9.97727,14.61423 9.97912,17.66221 4.3e-4,0.71369 2.33623,-1.03782 5.19066,-3.89225 2.85442,-2.85443 7.59104,-6.28916 10.52582,-7.63275 z m 281.07318,-1.43101 c 9.39573,-15.20261 35.51015,-16.74662 50.44256,-2.9824 4.38115,4.0384 4.38115,4.0384 5.53896,-0.29054 1.44158,-5.38991 9.77741,-14.78327 15.26906,-17.20618 4.82276,-2.12779 4.48316,-2.84828 -0.68851,-1.46075 C 619.23292,625.47 610.525,626.8215 602,627.90508 c -8.525,1.08357 -21.49563,3.34856 -28.82363,5.03331 -16.67165,3.8329 -41.56817,8.48396 -54.67637,10.2144 -10,1.32012 -10,1.32012 -2.07524,2.05182 9.85441,0.90986 16.84838,4.15306 23.26513,10.78834 4.68299,4.84248 4.68299,4.84248 6.82715,-0.43311 1.17929,-2.90157 3.10161,-6.82478 4.27183,-8.71823 z m -420.90758,-0.28443 c 5.97405,-23.72511 -16.28015,-37.24754 -32.235183,-19.58722 -7.564878,8.37341 -9.21361,6.70471 19.353893,19.58835 11.84846,5.34353 11.53548,5.34356 12.88129,-10e-4 z m 563.56078,-5.47994 c 7.11813,-3.37042 13.1442,-6.33018 13.39127,-6.57724 1.05939,-1.05939 -7.4542,-9.81517 -12.17803,-12.52447 -10.80043,-6.19445 -21.83449,-2.05273 -25.69504,9.64486 -1.35324,4.10034 -0.80814,13.92684 0.95534,17.22193 1.3633,2.54734 2.63069,2.12903 23.52646,-7.76508 z M 383.38747,636.75 c 0.26295,-1.7875 1.19034,-25.3 2.06086,-52.25 0.87052,-26.95 2.68599,-80.725 4.03436,-119.5 1.34838,-38.775 2.57889,-74.66461 2.73446,-79.75469 C 392.5,375.99062 392.5,375.99062 389,376.32793 c -3.32146,0.32011 -3.79621,0.87726 -9.30662,10.92189 l -5.80661,10.58458 6.1801,14.50379 6.1801,14.50379 -9.19317,12.53098 -9.19317,12.53098 7.06968,13.3951 c 3.88833,7.36731 7.06969,13.82322 7.06969,14.34647 0,0.52325 -4.70396,7.65987 -10.45324,15.85916 l -10.45324,14.9078 8.85798,17.04376 8.85799,17.04377 -12.92976,16.46362 c -7.11137,9.055 -12.72366,17.00071 -12.47176,17.65715 0.2519,0.65644 4.98816,8.20541 10.52501,16.7755 5.53686,8.57009 10.06702,15.86178 10.06702,16.20375 0,0.34198 -5.175,6.391 -11.5,13.44228 -6.325,7.05127 -11.5,13.05744 -11.5,13.34704 0,0.53003 8.53026,1.03722 23.70469,1.40942 C 382.90937,640 382.90937,640 383.38747,636.75 Z m 55.53876,2.40075 L 447.35246,638.5 436.09523,626 c -6.19148,-6.875 -11.48381,-13.03613 -11.76073,-13.6914 -0.27693,-0.65527 4.3068,-8.65219 10.18607,-17.77093 7.443,-11.5441 10.40208,-16.95282 9.74296,-17.8086 -0.52063,-0.67599 -6.39723,-8.25254 -13.0591,-16.83679 l -12.11249,-15.60772 8.88421,-16.85074 c 4.88632,-9.2679 8.59615,-17.31943 8.24407,-17.89228 -0.35207,-0.57285 -5.04566,-7.17975 -10.43018,-14.68202 C 420.40552,487.35726 416,480.64508 416,479.94356 c 0,-0.70152 3.14683,-7.25726 6.99296,-14.56831 l 6.99295,-13.29281 -8.99295,-12.42976 C 416.04683,432.81632 412,426.91711 412,426.54332 c 0,-0.37378 2.69789,-6.98661 5.99531,-14.69518 l 5.99531,-14.01557 -5.74531,-10.59175 c -4.86073,-8.96098 -6.1601,-10.64583 -8.43937,-10.943 -2.69406,-0.35126 -2.69406,-0.35126 -2.2422,6.42546 0.24852,3.7272 1.13952,27.70172 1.98,53.27672 0.84048,25.575 2.18318,64.5 2.98377,86.5 0.80059,22 1.92542,55.525 2.49961,74.5 1.41931,46.90337 0.62454,43.02183 8.78415,42.90075 3.6788,-0.0546 10.48053,-0.39209 15.11496,-0.75 z M 345.2219,630.75 c 3.5715,-3.9875 9.00033,-10.13463 12.06406,-13.6603 6.3307,-7.28521 7.3759,-3.71881 -8.11412,-27.68686 C 345.22733,583.2994 342,577.89575 342,577.39472 c 0,-0.50103 5.8163,-8.33231 12.92511,-17.40284 L 367.85022,543.5 359.42511,527.2731 c -4.63381,-8.9248 -8.41032,-16.7998 -8.39223,-17.5 0.0181,-0.70021 4.71333,-7.7981 10.43389,-15.7731 l 10.40101,-14.5 -6.93389,-13.37945 C 361.12025,458.76186 358,452.12211 358,451.36556 c 0,-0.75655 3.9375,-6.83839 8.75,-13.5152 4.8125,-6.67681 8.60923,-12.60938 8.43718,-13.18348 -0.70403,-2.34918 -9.59617,-23.22549 -10.20211,-23.95177 -0.36017,-0.43169 -1.42263,4.74331 -2.36104,11.5 C 343.86852,547.25814 315.60963,607.34687 262.5,625.11539 l -7,2.34195 6.51394,1.18917 c 17.05412,3.11337 62.98303,8.88378 73.60019,9.24696 2.65762,0.0909 4.06605,-0.95627 9.60777,-7.14347 z M 477.5,636.49849 c 19.54076,-1.95023 36.77921,-4.16531 53.5,-6.87456 l 13.5,-2.18739 -8.5,-2.67512 C 511.88591,617.17224 490.53834,597.02874 476.04586,568.18888 459.51545,535.29358 445.53762,480.32456 436.39282,412.25 435.41386,404.9625 434.3122,399 433.9447,399 c -0.36751,0 -2.49335,4.3875 -4.72409,9.75 -2.23075,5.3625 -4.73369,11.34103 -5.5621,13.28562 -1.5062,3.53562 -1.5062,3.53562 7.89879,16.41122 9.405,12.8756 9.405,12.8756 6.56815,17.96438 -12.38802,22.22181 -12.43402,22.34086 -9.98786,25.85129 1.24078,1.78062 5.99241,8.47921 10.55919,14.88576 4.56677,6.40655 8.30322,12.18834 8.30322,12.84842 0,0.66008 -2.20351,5.31835 -4.8967,10.35173 -13.55059,25.32511 -12.89985,21.83866 -5.78584,30.99847 17.03461,21.93332 19.81993,25.85271 19.3123,27.17555 -0.29859,0.77811 -3.61982,6.04138 -7.38051,11.69615 -11.37624,17.10593 -13.61537,20.93316 -12.64999,21.62203 0.50822,0.36266 6.01997,6.39688 12.24833,13.40938 6.22836,7.0125 12.07311,12.749 12.98835,12.74777 0.91523,-10e-4 8.41406,-0.6759 16.66406,-1.49928 z M 151.37046,624.96106 c 3.06876,-1.07858 7.50332,-2.01326 9.85456,-2.07706 2.35124,-0.0638 3.37498,-0.33167 2.27498,-0.59527 -5.90063,-1.41399 -30.46658,-8.3244 -33.0213,-9.2889 -2.9787,-1.12458 -2.9787,-1.12458 0.71659,2.6878 3.76226,3.88147 7.74302,11.35594 7.78275,14.61326 0.0193,1.58292 0.43293,1.48743 3.4174,-0.78893 1.86749,-1.42441 5.90625,-3.47231 8.97502,-4.5509 z M 662.94365,622 c 0.71105,-1.375 2.87934,-4.16026 4.81842,-6.18947 3.52561,-3.68947 3.52561,-3.68947 -4.32003,-1.19801 -4.31511,1.3703 -12.81733,3.78454 -18.89384,5.36498 -9.26819,2.41056 -10.35944,2.88553 -6.77322,2.94801 5.34679,0.0932 14.4854,3.2478 18.59957,6.42054 3.1245,2.40953 3.1245,2.40953 4.20039,-1.21826 0.59174,-1.99528 1.65766,-4.75279 2.36871,-6.12779 z M 85.423687,621.69638 c 0.998843,-5.5297 -1.679669,-13.89254 -5.471524,-17.08318 -7.535885,-6.34103 -15.907858,-5.64881 -23.849615,1.97196 -5.526371,5.30301 -6.232524,4.46427 13.366263,15.87594 14.536385,8.46402 14.285695,8.47604 15.954876,-0.76472 z m 635.866153,5.20036 C 727.91661,623.58622 747,611.6098 747,610.76147 c 0,-4.06729 -13.7192,-11.41193 -19.34511,-10.35651 -10.79271,2.02473 -17.92882,16.74061 -12.78171,26.35807 1.45682,2.7221 1.24426,2.71767 6.41666,0.13371 z M 109.21697,608.84541 c 2.90567,-0.6312 4.60803,-1.37057 3.78303,-1.64304 -0.825,-0.27247 -6.73409,-2.61088 -13.131311,-5.19646 -11.63131,-4.70106 -11.63131,-4.70106 -8.725366,-0.11886 1.598269,2.52021 3.362274,6.27688 3.920011,8.34815 1.014067,3.76596 1.014067,3.76596 4.942336,1.76191 2.16054,-1.10223 6.30563,-2.52049 9.2113,-3.1517 z m 594.71985,1.38921 c 0.55765,-2.07095 2.30428,-5.80008 3.8814,-8.28694 2.86749,-4.52156 2.86749,-4.52156 -9.15259,0.26538 -6.61104,2.63282 -12.72783,4.81288 -13.59285,4.84459 -0.86503,0.0317 1.39933,0.8334 5.03191,1.78154 3.63257,0.94814 7.68257,2.4736 9,3.3899 3.38322,2.35312 3.69624,2.22393 4.83213,-1.99447 z M 58,592.5671 c 3.025,-1.40116 7.075,-2.57742 9,-2.61392 3.219037,-0.061 2.824994,-0.38356 -4.908673,-4.01776 -4.62477,-2.17328 -8.554564,-3.80552 -8.732875,-3.62721 -0.178312,0.17832 -2.377065,5.01941 -4.886118,10.758 C 43.910419,603.5 43.910419,603.5 48.205209,599.30733 50.567344,597.00137 54.975,593.96826 58,592.5671 Z m 692.03971,-0.59796 c -2.21697,-5.11149 -4.18645,-9.44921 -4.37661,-9.63937 -0.19017,-0.19017 -4.12966,1.43237 -8.75443,3.60565 -7.05864,3.317 -7.91548,3.96049 -5.33681,4.00799 5.41834,0.0998 12.32032,3.13378 17.18949,7.55614 2.60626,2.3671 4.86703,4.18217 5.02394,4.03351 0.15691,-0.14867 -1.5286,-4.45243 -3.74558,-9.56392 z M 432.97742,387.3353 c -1.26225,-8.34391 -1.89939,-9.29592 -6.23746,-9.31999 -2.76003,-0.0153 -2.76003,-0.0153 1.81241,9.08896 5.37777,10.70779 6.01499,10.74106 4.42505,0.23103 z m -61.48815,-4.31412 C 374.03369,378 374.03369,378 371.76685,378.01531 c -3.5124,0.0237 -4.46767,1.1236 -5.19791,5.98469 -0.3718,2.475 -0.90943,5.85 -1.19474,7.5 -0.51875,3 -0.51875,3 1.52595,-0.22882 1.12458,-1.77585 3.18969,-5.48835 4.58912,-8.25 z M 399,367.5 c 8.525,0 19.13492,0.36166 23.57761,0.80369 8.07761,0.80368 8.07761,0.80368 7.42623,-4.27377 -0.35826,-2.7926 -1.06818,-5.48148 -1.57761,-5.97528 -3.28933,-3.18845 -54.65258,-3.22829 -57.83601,-0.0449 -0.51847,0.51847 -1.2367,3.23459 -1.59607,6.0358 -0.65339,5.09313 -0.65339,5.09313 6.92623,4.27377 C 380.08917,367.86871 390.475,367.5 399,367.5 Z m 0.5,-21 c 6.6,0 15.74655,0.35087 20.32567,0.77971 8.32567,0.77971 8.32567,0.77971 7.6248,-5 -0.38548,-3.17884 -0.90693,-6.00471 -1.15878,-6.27971 -0.25186,-0.275 -12.30788,-0.5 -26.79116,-0.5 -14.48328,0 -26.55245,0.225 -26.82038,0.5 -0.26793,0.275 -0.80615,3.07731 -1.19604,6.22737 -0.7089,5.72736 -0.7089,5.72736 7.65349,5 C 383.73692,346.82731 392.9,346.5 399.5,346.5 Z m -1.23148,-20.72908 c 8.37731,-0.02 18.04139,0.29229 21.47572,0.6939 6.24423,0.73022 6.24423,0.73022 5.62037,-4.1173 -0.34313,-2.66614 -0.90303,-5.14939 -1.24424,-5.51834 -2.33942,-2.52968 -46.9163,-2.61575 -49.17497,-0.0949 -0.37738,0.42117 -0.9666,2.9451 -1.30938,5.60873 -0.62324,4.84296 -0.62324,4.84296 4.38889,4.15361 2.75667,-0.37913 11.86629,-0.70568 20.24361,-0.72565 z M 399,305.5 c 5.225,0 12.92035,0.32608 17.10077,0.72463 7.60077,0.72463 7.60077,0.72463 7.12153,-4.5 -0.26359,-2.87355 -0.64212,-5.40782 -0.84119,-5.63171 -1.60771,-1.80822 -31.65554,-2.72953 -41.38111,-1.2688 -4.5,0.67588 -4.5,0.67588 -5.03255,5.97667 -0.65842,6.55369 -1.05661,6.24206 6.90057,5.40056 C 386.51561,305.81561 393.775,305.5 399,305.5 Z m 22.15651,-24.70514 c -0.18892,-2.58783 -0.93144,-5.1931 -1.65004,-5.78949 -1.70674,-1.41647 -26.15638,-2.34513 -34.50647,-1.31065 -6.5,0.80528 -6.5,0.80528 -7.03255,6.10607 -0.2929,2.91543 -0.44228,5.39043 -0.33195,5.5 0.11032,0.10956 10.02497,0.19921 22.03254,0.19921 21.83196,0 21.83196,0 21.48847,-4.70514 z M 419,259.78518 c 0,-6.51213 -1.20612,-6.97451 -18.37252,-7.04328 -19.82111,-0.0794 -20.36535,0.0926 -20.7884,6.56799 C 379.5,264.5 379.5,264.5 399.25,264.5 c 19.75,0 19.75,0 19.75,-4.71482 z m -1.99179,-21.2011 c -0.62663,-6.16654 -1.10331,-6.34695 -17.13321,-6.4844 -17.3954,-0.14916 -17.87503,0.0192 -17.87487,6.27532 1.2e-4,5.125 1.2e-4,5.125 17.75821,5.16762 17.75808,0.0426 17.75808,0.0426 17.24987,-4.95854 z m -1.85508,-20.49359 c -0.43339,-6.37343 -1.09633,-6.61524 -17.88624,-6.52404 -14.14002,0.0768 -12.87852,-0.49917 -13.48926,6.15891 -0.47931,5.22537 -0.47931,5.22537 15.12153,5.5 8.58046,0.15105 15.82584,0.20523 16.10084,0.1204 0.275,-0.0848 0.34391,-2.44971 0.15313,-5.25527 z M 413.44643,197.5 c -0.86751,-6.44917 0.20873,-5.94923 -13.64061,-6.33634 -13.57649,-0.37949 -13.36305,-0.47431 -14.26252,6.33634 -0.66033,5 -0.66033,5 13.95768,5 14.61802,0 14.61802,0 13.94545,-5 z M 412,179.37482 C 412,173.58308 410.85668,173 399.5,173 c -11.33492,0 -12.5,0.58866 -12.5,6.31563 0,2.44711 0,2.44711 12.5,2.50631 12.5,0.0592 12.5,0.0592 12.5,-2.44712 z m -53.71326,0.98628 C 285.24104,139.10537 312.27642,27.220513 396,24.286313 c 29.95895,-1.04995 53.48384,10.203054 71.18357,34.050281 7.24037,9.755103 7.37195,10.749191 1.21587,9.1861 -3.91315,-0.993588 -5.48079,-2.23476 -10.49154,-8.306627 C 424.44939,18.672094 360.61143,23.76336 333.96548,69.100841 312.08289,106.33359 326.41071,155.57426 364.75,174.89851 c 3.9292,1.98045 4.25,2.44253 4.25,6.12181 0,5.08198 -0.61513,5.04413 -10.71326,-0.65922 z M 430,181.08771 c 0,-3.7351 0.3179,-4.20924 4.12415,-6.15104 C 456.5722,163.48452 475,135.27441 475,112.36204 c 0,-3.5072 0,-3.5072 2.6816,-1.39785 5.04316,3.96694 5.35551,5.00915 3.78431,12.62696 -5.1128,24.78891 -19.97721,45.28122 -41.46591,57.1656 -9.16617,5.06936 -10,5.09696 -10,0.33096 z m 52.89697,-69.99634 c -0.88166,-0.87525 -4.59416,-4.36591 -8.25,-7.75702 C 469.22039,98.300722 468,96.602412 468,94.084351 c 0,-3.817202 0.1487,-3.81229 7.44309,0.245895 7.21471,4.013858 9.61836,7.035354 10.28224,12.925204 0.55921,4.96134 -0.39334,6.25323 -2.82836,3.83592 z M 482.5,94.388429 c -1.1,-0.85138 -4.15287,-2.652437 -6.78415,-4.002349 C 469.848,87.375734 467,84.635489 467,82 c 0,-6.36577 16.37374,4.173756 18.25428,11.75 0.65164,2.625299 0.006,2.774927 -2.75428,0.638429 z m 0.43526,-10.966437 C 480.90126,80.971169 473.36445,77.487325 463.5,74.438163 449.90518,70.235918 446.09153,66.656075 447.45681,59.378518 448.47997,53.924619 453,56.045687 453,61.979713 c 0,3.565087 4.18894,6.715924 10.60316,7.975499 10.81087,2.12295 18.34092,6.577012 20.21687,11.958375 1.21004,3.471116 1.01711,3.800031 -0.88477,1.508405 z"
       id="path1474" />
  </g>
</svg>
