<?xml version="1.0" encoding="UTF-8" standalone="no"?>
<!-- Created with Inkscape (http://www.inkscape.org/) -->

<svg
   width="210mm"
   height="297mm"
   viewBox="0 0 210 297"
   version="1.1"
   id="svg5"
   inkscape:version="1.1 (c68e22c387, 2021-05-23)"
   sodipodi:docname="runes.svg"
   xmlns:inkscape="http://www.inkscape.org/namespaces/inkscape"
   xmlns:sodipodi="http://sodipodi.sourceforge.net/DTD/sodipodi-0.dtd"
   xmlns="http://www.w3.org/2000/svg"
   xmlns:svg="http://www.w3.org/2000/svg">
  <sodipodi:namedview
     id="namedview7"
     pagecolor="#ffffff"
     bordercolor="#666666"
     borderopacity="1.0"
     inkscape:pageshadow="2"
     inkscape:pageopacity="0.0"
     inkscape:pagecheckerboard="0"
     inkscape:document-units="mm"
     showgrid="false"
     inkscape:zoom="0.74118967"
     inkscape:cx="395.98501"
     inkscape:cy="22.261508"
     inkscape:window-width="1920"
     inkscape:window-height="1017"
     inkscape:window-x="-8"
     inkscape:window-y="-8"
     inkscape:window-maximized="1"
     inkscape:current-layer="layer1" />
  <defs
     id="defs2" />
  <g
     inkscape:label="Layer 1"
     inkscape:groupmode="layer"
     id="layer1">
    <path
       style="fill:#050506;stroke:none;stroke-width:0.264565"
       d="m -26.309408,38.987781 3.48802,5.291287 -2.332376,4.233033 1.754565,3.43934 c -1.550611,-0.05045 -2.307636,-0.698348 -2.910209,-2.116517 -1.089184,1.17832 -1.758904,2.06196 -3.439338,2.116517 l 2.381081,-3.17477 v -0.26457 c -0.958518,-0.850808 -2.997146,-2.851346 -2.911851,-4.233033 0.107593,-1.743084 2.582151,-3.783931 3.44098,-5.291287 h 0.529128 m 123.816193,4.233034 -2.91021,-1.851956 v 10.582582 h -1.32282 V 41.368859 l -2.91021,1.851956 c 0.15795,-4.865822 6.98794,-4.770524 7.14324,0 m 52.912895,-4.233034 3.49437,5.291287 -2.30435,4.233033 1.98476,3.43934 c -1.68263,-0.01991 -2.42368,-0.61413 -3.17478,-2.116517 -1.1109,1.279139 -1.67073,2.095456 -3.43935,2.116517 0.52385,-0.919625 1.99642,-2.249592 1.99615,-3.327053 -5.4e-4,-1.386613 -1.96942,-2.46265 -2.32473,-3.816189 -0.47278,-1.799378 2.49034,-4.786954 3.76793,-5.820418 m -191.5447,0.264562 v 0.264571 l -3.439338,2.381076 3.174774,2.910209 -3.43934,3.968472 3.968468,3.17477 c -2.706918,-0.0019 -3.933678,-1.487404 -6.084984,-2.910209 l 2.8955,-3.700017 -2.8955,-2.914093 c 1.469232,-1.915394 3.40558,-3.167849 5.82042,-3.174779 m 3.968467,12.699098 h -1.587388 V 39.252343 l 5.554639,1.917483 1.389784,1.44939 -4.932831,3.612051 -0.424204,5.720174 m 23.810808,0 c -2.330549,-0.07633 -2.856239,-2.40045 -3.769252,-4.233033 -0.343934,-0.690481 -0.952431,-1.569582 -0.777026,-2.381077 0.24684,-1.141017 1.642681,-2.122997 2.429761,-2.910209 l -3.703903,-1.587395 v 11.111714 h -1.587389 V 39.252343 l 5.291028,1.742528 1.683953,1.478172 -2.299859,3.65798 2.732687,5.820418 m 6.0849826,-8.201505 h 0.529129 c 0.669085,-1.838925 1.513046,-4.424784 3.703903,-4.497593 v 12.699098 c -2.07154,-0.159926 -3.138528,-2.975346 -3.703903,-4.762164 h -0.529129 c -0.803748,1.930474 -1.587652,4.683216 -3.9684656,4.762164 V 39.252343 c 2.3990696,0.07856 3.1541376,2.541648 3.9684656,4.497593 m 13.757356,8.201505 H 5.1737706 V 39.252343 l 5.2899674,1.794176 1.389758,1.583706 -4.9328064,3.661866 -0.424096,5.65935 m 9.5243214,-12.699098 0.311922,4.15954 4.450241,1.925448 v -6.084988 h 1.587386 v 12.699098 h -1.587386 l -0.271973,-4.651516 -4.225624,-1.962594 -0.264566,6.61411 H 14.698094 V 39.252343 h 1.322821 m 11.111709,0 V 51.951441 H 25.545238 V 39.252343 h 1.587386 m 10.318017,0 0.271972,4.15954 4.49019,1.925448 v -6.084988 h 1.587385 V 51.951441 H 42.212803 L 41.94083,47.299925 37.450641,45.337331 v 6.61411 H 36.127818 V 39.252343 h 1.322823 M 53.324513,51.951441 H 51.737125 V 39.252343 l 5.289968,1.787639 1.389756,1.607596 -4.66824,3.569586 -0.424096,5.734277 M 62.848834,39.252343 V 51.951441 H 61.261447 V 39.252343 h 1.587387 m 7.672371,3.968472 -2.91021,-1.851956 v 10.582582 h -1.58739 V 39.252343 c 2.13768,0.117014 4.42458,1.733851 4.4976,3.968472 m 6.61411,0 -2.91021,-1.851956 v 10.582582 h -1.32282 V 39.252343 c 2.16308,0.145169 4.16081,1.746286 4.23303,3.968472 m 11.64084,-3.968472 v 0.264571 l -3.7039,2.910208 3.43934,2.381077 -3.43934,3.968472 3.96847,3.17477 c -2.70703,-0.0019 -3.93381,-1.487404 -6.08499,-2.910209 l 2.8954,-3.700017 -2.8954,-2.914093 c 1.52786,-1.889023 3.37584,-3.167761 5.82042,-3.174779 m 18.519515,12.699098 c -2.39299,-0.0285 -2.81867,-2.061119 -3.76925,-3.968472 -0.38362,-0.769829 -1.04952,-1.743504 -0.8056,-2.645638 0.29922,-1.106037 1.54453,-1.988418 2.19377,-2.910209 l -3.43934,-1.587395 V 51.951441 H 99.887865 V 39.252343 l 5.026465,1.652922 1.68395,1.549604 -2.13768,3.676154 2.83507,5.820418 m 3.7039,-12.699098 v 12.699098 h -1.5874 V 39.252343 h 1.5874 m 12.69909,2.910208 c 1.61014,-1.158154 2.33638,-2.840073 4.49759,-2.910208 v 12.699098 h -1.58738 V 41.368859 h -0.26457 c -1.56992,3.042201 -3.29673,2.606072 -4.76215,-0.264561 h -0.26457 l 0.26457,10.847143 h -1.58739 V 39.252343 c 1.862,0.06041 2.95227,1.269564 3.7039,2.910208 m 16.66757,1.851956 c 0.77675,-1.855634 1.71966,-4.687423 3.96848,-4.762164 v 12.699098 c -2.19563,-0.16951 -3.21236,-3.211282 -3.96848,-5.026725 -1.07466,1.841239 -1.79904,4.945844 -4.23303,5.026725 V 39.252343 c 2.46283,0.08061 3.14118,2.893089 4.23303,4.762164 m 17.19669,7.936934 H 156.2401 V 39.252343 l 5.28996,1.794176 1.38975,1.583706 -4.93279,3.640619 -0.4241,5.680597 m 11.64084,-12.699098 v 5.820417 c 1.45379,0.214728 2.77952,0.475931 2.91022,2.116517 l -2.91022,-0.793692 v 5.555856 h -1.58738 l -0.27198,-5.746926 -2.63823,-2.719139 2.91021,0.793692 v -5.026725 h 1.58738 m 11.37628,0 v 1.587384 c 3.66183,0.319706 6.70697,4.389054 3.56394,7.532339 -0.9527,0.952807 -2.27367,1.288245 -3.56394,1.462858 v 2.116517 h -1.5874 V 39.252343 h 1.5874 m 10.84714,2.910208 c 1.61014,-1.158154 2.33638,-2.840073 4.49759,-2.910208 v 12.699098 h -1.58739 V 41.368859 h -0.26456 c -1.56992,3.042201 -3.29673,2.606072 -4.76215,-0.264561 h -0.26457 l 0.26457,10.847143 h -1.58739 V 39.252343 c 1.862,0.06041 2.95227,1.269564 3.7039,2.910208 m 14.02193,-2.910208 v 3.968472 c 1.73819,-0.86449 3.07953,-1.982591 3.43934,-3.968472 h 1.58738 c -0.37913,2.799249 -2.17763,4.862643 -5.02672,5.291296 v 1.851946 c 3.37503,-1.343272 6.09501,-3.306977 6.6141,-7.143242 h 1.58739 c -1.07414,4.45953 -3.28509,7.74 -8.20149,8.466065 v 4.233033 h -1.5874 V 39.252343 h 1.5874 m 14.81561,0.793692 v 1.587394 l -2.91021,-0.793702 2.91021,4.233033 -2.91021,-1.058253 v 7.936934 h -1.5874 V 39.252343 l 4.49761,0.793692 m 3.7039,-0.793692 V 51.951441 H 222.6458 V 39.252343 h 1.32282 m 5.02672,0 v 1.587384 c 6.17493,0.542542 5.8654,8.115862 0,8.995197 v 2.116517 h -1.58738 V 39.252343 h 1.58738 m 11.37628,3.968472 -2.9102,-1.851956 v 10.582582 h -1.5874 V 39.252343 c 2.19061,0.07086 4.42353,1.693318 4.4976,3.968472 m 6.08498,-1.058264 c 1.61118,-1.158183 2.33611,-2.840073 4.4976,-2.910208 v 12.699098 h -1.58739 V 41.368859 h -0.26457 c -1.56887,3.04226 -3.29646,2.605985 -4.76215,-0.264561 h -0.26458 l 0.26458,10.847143 H 242.7527 V 39.252343 c 1.86253,0.06041 2.95254,1.269546 3.7039,2.910208 m 12.16998,-2.910208 -3.43934,2.910208 v 0.264571 l 2.87845,2.658922 -2.87845,3.426057 v 0.26457 l 3.96845,2.910209 v 0.264561 c -1.62177,-9.75e-4 -5.76485,-0.942774 -5.76485,-3.185194 0,-1.278357 2.18531,-2.770388 3.11921,-3.428916 V 45.07276 l -3.43933,-2.645638 c 1.38367,-1.881507 3.20123,-3.166474 5.55586,-3.174779 m 7.14323,0 v 0.264571 l -3.7039,2.910208 3.43934,2.645638 v 0.264571 l -3.43934,3.17477 v 0.26457 l 3.96847,3.17477 c -2.68534,-0.0019 -4.00816,-1.369867 -6.085,-2.910209 l 3.43935,-3.439339 -3.43935,-3.174771 c 1.50537,-1.967121 3.34939,-3.172876 5.82043,-3.174779 m -302.926363,1.587384 v 3.703912 l 3.439339,-2.116517 -3.439339,-1.587395 m 43.6531466,0 v 3.703912 l 3.439338,-1.851957 -3.439338,-1.851955 m 46.8279194,0 v 3.703912 l 3.439338,-2.116517 -3.439338,-1.587395 m 104.238407,0 v 3.703912 l 3.43934,-1.851957 -3.43934,-1.851955 m -184.136892,0.529132 c -1.267211,1.380104 -2.592203,2.692691 -1.276471,4.492285 0.297583,0.407055 0.721495,1.008858 1.289937,1.008858 0.57818,0 1.019948,-0.599977 1.333855,-1.008858 1.345417,-1.752453 0.07029,-3.233984 -1.347321,-4.492285 m 176.729082,0 c -2.05142,2.370898 -2.35197,3.954974 0.26457,6.084989 1.75116,-2.444819 2.34114,-3.932887 -0.26457,-6.084989 M -9.6418434,42.162551 v 6.61412 h 0.264566 c 1.142124,-2.729124 1.853803,-4.05755 -0.264566,-6.61412 m 5.026726,0 c -1.235781,2.867754 -1.667286,3.757717 0,6.61412 h 0.264565 l -0.264565,-6.61412 m 142.3356874,0 v 6.61412 h 0.26458 c 1.11565,-2.679037 1.80645,-4.114723 -0.26458,-6.61412 m 5.02673,0 c -1.68977,2.895159 -1.22229,3.942677 0,6.878681 h 0.26458 l -0.26458,-6.878681 m 37.83274,0 v 6.34955 c 3.93406,-0.945761 4.16265,-5.606989 0,-6.34955 m 48.4153,0 v 6.34955 c 3.67216,-1.252865 4.16424,-5.348459 0,-6.34955 m -195.513168,0.529131 -1.858035,3.17477 1.858035,2.910219 c -4.651044,-0.150936 -4.395474,-5.93934 0,-6.084989 m 83.866948,0 -1.87128,3.17477 1.87128,2.910219 c -4.61851,-0.149881 -4.38569,-5.941488 0,-6.084989 z"
       id="path1631"
       sodipodi:nodetypes="ccccccccsccccccccccccccccccccccccccccccccccccccccccccccccccccccccccccccccccccccccccccccccccccccccccccccccccccccccccccccccccccccccccccccccccccccccccccccccccccccccccccccccccccccccccccccccccccccccscccccccccccccccccccccccccccccccccccccccccccccccccccccccccccccccccccccccccccccsccccccccccccccccccccccccccccccccccsccccccccccccccccccccccccccccccccccc" />
  </g>
</svg>
